<?xml version="1.0" encoding="utf-8" ?><svg xmlns="http://www.w3.org/2000/svg" xmlns:xlink="http://www.w3.org/1999/xlink" width="2048" height="2048" viewBox="0 0 2048 2048"><path fill="#0F1420" d="M0 0L2048 0L2048 2048L0 2048L0 0Z"/><path fill="#0A0A18" d="M531.403 852.649C560.999 767.399 600.101 700.369 665.892 637.184C751.112 555.901 862.064 506.963 979.552 498.838C1000.7 497.237 1019.71 497.529 1040.92 497.966C1045.89 497.794 1050.36 498.173 1055.18 498.03C1059.91 498.083 1060.08 498.049 1064.71 499.446L1066.35 499.931C1078.54 501.176 1091.49 501.787 1103.32 504.571C1104.98 504.961 1104.2 504.867 1105.99 504.805C1112.54 503.804 1124.95 507.289 1131.9 508.674C1172.21 516.704 1209.97 528.858 1247.52 545.726C1256.1 549.893 1264.65 554.127 1273.16 558.427C1334.93 590.536 1389.09 635.505 1432.02 690.305C1435.09 693.634 1439.55 699.536 1441.4 703.605C1458.95 719.503 1512.01 809.051 1517.75 831.961C1519.62 833.922 1521.24 835.661 1523.28 837.465L1418.3 894.741C1411.4 898.512 1379.76 916.691 1374.77 917.714C1370.79 920.457 1370.11 921.134 1365.64 922.621C1359.61 927.829 1342.07 936.373 1334.24 940.867C1297.33 962.045 1245.63 961.967 1215.82 928.712C1212.22 924.693 1206.69 914.066 1203.6 908.891C1197.83 899.189 1191.21 890.013 1183.82 881.47C1158.1 852.536 1125.12 830.987 1088.29 819.047C1030.2 800.732 975.514 807.918 922.125 835.811C885.209 858.909 858.183 883.91 837.681 923.21C805.226 990.709 805.545 1053.31 837.295 1121.08C856.099 1155.31 882.738 1186.36 917.287 1205.44C967.014 1233.39 1015.14 1242.41 1071.1 1229.89C1126.48 1217.51 1177.68 1180.55 1205.74 1131.44C1217.97 1110.04 1235.08 1099.32 1259.15 1093.17C1297.59 1083.36 1333.41 1103.9 1365.61 1124.07C1369.29 1125.81 1370.76 1126.28 1373.79 1128.9C1377.85 1129.85 1428.13 1158.23 1433.91 1161.71C1442.93 1167.15 1519.3 1208.32 1521.39 1211.52C1520.2 1212.73 1519.06 1213.87 1517.83 1215.03C1519.13 1223.46 1484.56 1285.07 1477.51 1295.91C1475 1299.77 1469.18 1305.6 1466.57 1310.94C1465.44 1314.68 1466.09 1316 1462.52 1317.17C1460.13 1322.7 1456.02 1328.53 1452.12 1333.09C1441.49 1347.04 1431.2 1360.84 1419.47 1373.92C1402.91 1392.09 1386.48 1409.07 1367.92 1424.93C1288.97 1492.39 1190.07 1535 1086.9 1546.53C1079.88 1547.32 1072.42 1548.25 1065.34 1548.07C1041.27 1552.26 1014.91 1547.57 994.123 1549.25C987.064 1548.97 984.5 1548.34 977.572 1547.08C974.654 1546.49 963.985 1546.27 959.789 1545.84C948.762 1544.7 939.425 1543.05 928.578 1540.98C914.451 1543.76 838.296 1516.74 821.013 1509.62C760.951 1483.04 707.195 1449.78 659.95 1403.63C585.661 1332.29 536.055 1239.12 518.339 1137.66C514.846 1118.07 511.169 1094.11 510.933 1074.11C509.995 1068.58 510.173 1065.62 509.928 1060.17L509.82 1058.16L509.558 1056.07C509.228 1053.22 507.168 1033.53 510.914 1034.87C511.495 1031.15 508.839 1019.83 508.413 1014.35C507.64 1004.37 511.713 980.901 510.647 973.008C508.466 940.711 522.402 883.638 531.403 852.649Z"/><path fill="#0A0A18" d="M702.534 914.305C705.981 911.276 715.786 899.481 719.661 895.273C736.195 877.321 752.711 865.344 773.855 853.537C786.873 846.267 835.105 825.091 848.388 829.019L849.229 829.528C848.893 835.426 843.787 843.328 841.7 849.686C834.552 871.452 832.254 900.971 837.681 923.21C805.226 990.709 805.545 1053.31 837.295 1121.08C856.099 1155.31 882.738 1186.36 917.287 1205.44C967.014 1233.39 1015.14 1242.41 1071.1 1229.89C1126.48 1217.51 1177.68 1180.55 1205.74 1131.44C1217.97 1110.04 1235.08 1099.32 1259.15 1093.17C1297.59 1083.36 1333.41 1103.9 1365.61 1124.07C1369.29 1125.81 1370.76 1126.28 1373.79 1128.9C1377.85 1129.85 1428.13 1158.23 1433.91 1161.71C1442.93 1167.15 1519.3 1208.32 1521.39 1211.52C1520.2 1212.73 1519.06 1213.87 1517.83 1215.03C1519.13 1223.46 1484.56 1285.07 1477.51 1295.91C1475 1299.77 1469.18 1305.6 1466.57 1310.94C1465.44 1314.68 1466.09 1316 1462.52 1317.17C1460.13 1322.7 1456.02 1328.53 1452.12 1333.09C1441.49 1347.04 1431.2 1360.84 1419.47 1373.92C1402.91 1392.09 1386.48 1409.07 1367.92 1424.93C1288.97 1492.39 1190.07 1535 1086.9 1546.53C1079.88 1547.32 1072.42 1548.25 1065.34 1548.07C1041.27 1552.26 1014.91 1547.57 994.123 1549.25C987.064 1548.97 984.5 1548.34 977.572 1547.08C974.654 1546.49 963.985 1546.27 959.789 1545.84C948.762 1544.7 939.425 1543.05 928.578 1540.98C914.451 1543.76 838.296 1516.74 821.013 1509.62C760.951 1483.04 707.195 1449.78 659.95 1403.63C585.661 1332.29 536.055 1239.12 518.339 1137.66C514.846 1118.07 511.169 1094.11 510.933 1074.11C511.294 1070.9 510.272 1063.86 512.955 1063.34C517.134 1084.28 521.594 1106.5 529.554 1126.53C560.211 1203.66 619.778 1265.82 687.716 1311.81C693.789 1315.92 719.758 1333.08 725.96 1335.41C730.808 1334.29 740.833 1336.52 746.076 1337.43C784.984 1344.16 824.254 1342.79 863.57 1340.38C849.965 1330 833.052 1320.91 819.008 1309.97C770.63 1272.27 734.55 1226.19 709.02 1170.8C680.311 1108.83 670.358 1039.82 680.386 972.262C682.098 960.414 685.664 940.205 689.622 929.44L691.309 929.647C689.866 945.767 687.961 963.434 687.788 979.461C687.983 983.633 686.393 998.188 689.83 998.836C690.459 972.828 695.82 939.169 702.534 914.305Z"/><path fill="#EE4D2B" d="M917.287 1205.44C967.014 1233.39 1015.14 1242.41 1071.1 1229.89C1126.48 1217.51 1177.68 1180.55 1205.74 1131.44C1217.97 1110.04 1235.08 1099.32 1259.15 1093.17C1297.59 1083.36 1333.41 1103.9 1365.61 1124.07C1369.29 1125.81 1370.76 1126.28 1373.79 1128.9C1363.99 1162.01 1342.3 1213.99 1321.84 1241.87C1317.66 1253.32 1290.13 1289.49 1280.95 1295.32C1278.11 1296.86 1277.57 1297.15 1275.08 1299.19L1276.26 1301.35C1255.36 1323.85 1240.03 1339.96 1216.29 1360.04C1196.91 1374.35 1088.03 1359.28 1066.85 1348.97L1067.29 1348.15L1072.08 1347.62C998.466 1337.63 941.649 1311.74 887.891 1260.17C873.683 1245.6 863.651 1233.54 853.253 1215.95L852.86 1215C852.176 1212.98 845.999 1198.97 844.74 1196.79C836.358 1182.27 831.203 1135.62 837.295 1121.08C856.099 1155.31 882.738 1186.36 917.287 1205.44Z"/><path fill="#F76F4E" d="M917.287 1205.44C967.014 1233.39 1015.14 1242.41 1071.1 1229.89C1126.48 1217.51 1177.68 1180.55 1205.74 1131.44C1217.97 1110.04 1235.08 1099.32 1259.15 1093.17C1297.59 1083.36 1333.41 1103.9 1365.61 1124.07L1245.44 1200.36C1242.31 1202.16 1239.25 1204.07 1236.24 1206.07C1222.78 1212.05 1206.31 1225.37 1192.19 1232.89C1125.13 1268.6 1049.48 1285.53 973.63 1277.45C955.06 1275.52 936.798 1272.48 918.459 1268.34C909.431 1266.3 896.449 1260.24 887.891 1260.17C873.683 1245.6 863.651 1233.54 853.253 1215.95L852.86 1215C852.176 1212.98 845.999 1198.97 844.74 1196.79C836.358 1182.27 831.203 1135.62 837.295 1121.08C856.099 1155.31 882.738 1186.36 917.287 1205.44Z"/><path fill="#0F1420" d="M1245.44 1200.36L1365.61 1124.07C1369.29 1125.81 1370.76 1126.28 1373.79 1128.9C1363.99 1162.01 1342.3 1213.99 1321.84 1241.87C1322.49 1236.92 1326.19 1224.73 1327.52 1219.19C1331.85 1201.08 1332.73 1187.41 1332.47 1169.03C1305.25 1180.7 1275.23 1191.38 1247.52 1202.53L1245.44 1200.36Z"/><path fill="#0F1420" d="M1275.08 1299.19L1276.26 1301.35C1255.36 1323.85 1240.03 1339.96 1216.29 1360.04C1196.91 1374.35 1088.03 1359.28 1066.85 1348.97L1067.29 1348.15L1072.08 1347.62C1142.21 1354.88 1218.17 1343.45 1275.08 1299.19Z"/><path fill="#470C09" d="M1245.44 1200.36L1247.52 1202.53C1243.68 1203.99 1240.3 1205.41 1236.24 1206.07C1239.25 1204.07 1242.31 1202.16 1245.44 1200.36Z"/><path fill="#0F1420" d="M702.534 914.305C705.981 911.276 715.786 899.481 719.661 895.273C736.195 877.321 752.711 865.344 773.855 853.537C786.873 846.267 835.105 825.091 848.388 829.019L849.229 829.528C848.893 835.426 843.787 843.328 841.7 849.686C834.552 871.452 832.254 900.971 837.681 923.21C805.226 990.709 805.545 1053.31 837.295 1121.08C831.203 1135.62 836.358 1182.27 844.74 1196.79C845.999 1198.97 852.176 1212.98 852.86 1215C852.208 1214.65 851.309 1214.19 850.462 1213.58C811.05 1185.39 779.431 1145.72 761.539 1100.68C755.513 1085.51 751.792 1068.27 748.408 1052.72C744.839 1054.71 744.468 1055.76 743.309 1060.46C729.517 1116.39 731.737 1177.47 761.066 1228.41C788.985 1276.91 835.922 1319.36 884.326 1346.74C900.403 1355.84 945.579 1370.29 963.978 1375.46C1002.49 1386.29 1048.11 1393.25 1087.97 1394.92C1105.41 1395.66 1126.58 1394.14 1143.62 1390.98C1149.25 1389.93 1166.6 1386.17 1171.22 1387.55C1163.53 1390.49 1153.37 1393.24 1145.26 1395.3C1008.07 1430.18 847.721 1407.77 725.96 1335.41C730.808 1334.29 740.833 1336.52 746.076 1337.43C784.984 1344.16 824.254 1342.79 863.57 1340.38C849.965 1330 833.052 1320.91 819.008 1309.97C770.63 1272.27 734.55 1226.19 709.02 1170.8C680.311 1108.83 670.358 1039.82 680.386 972.262C682.098 960.414 685.664 940.205 689.622 929.44L691.309 929.647C689.866 945.767 687.961 963.434 687.788 979.461C687.983 983.633 686.393 998.188 689.83 998.836C690.459 972.828 695.82 939.169 702.534 914.305Z"/><path fill="#EE4D2B" d="M848.388 829.019L849.229 829.528C848.893 835.426 843.787 843.328 841.7 849.686C834.552 871.452 832.254 900.971 837.681 923.21C805.226 990.709 805.545 1053.31 837.295 1121.08C831.203 1135.62 836.358 1182.27 844.74 1196.79C845.999 1198.97 852.176 1212.98 852.86 1215C852.208 1214.65 851.309 1214.19 850.462 1213.58C811.05 1185.39 779.431 1145.72 761.539 1100.68C755.513 1085.51 751.792 1068.27 748.408 1052.72C739.722 971.464 766.438 908.263 823.163 850.367C830.454 842.925 840.362 835.923 848.388 829.019Z"/><path fill="#824035" d="M689.83 998.836C690.1 1001.78 689.407 1045.52 689.049 1046.13L689.172 1046.29C689.108 1046.34 689.044 1046.38 688.98 1046.42C688.908 1046.38 688.836 1046.34 688.765 1046.29L688.882 1046.01L688.695 1046.33L688.871 1045L688.389 1044.42C689.116 1026.26 684.315 998.535 687.788 979.461C687.983 983.633 686.393 998.188 689.83 998.836Z"/><path fill="#F76F4E" d="M510.933 1074.11C511.294 1070.9 510.272 1063.86 512.955 1063.34C517.134 1084.28 521.594 1106.5 529.554 1126.53C560.211 1203.66 619.778 1265.82 687.716 1311.81C693.789 1315.92 719.758 1333.08 725.96 1335.41C847.721 1407.77 1008.07 1430.18 1145.26 1395.3C1153.37 1393.24 1163.53 1390.49 1171.22 1387.55C1174.79 1386.73 1183.25 1383.57 1187.09 1382.24L1188.2 1382.96C1189.82 1383.95 1190.13 1384.75 1190.94 1386.46C1110.48 1446.25 991.758 1478.83 892.122 1474.36C830.318 1471.58 754.332 1452.69 701.485 1419.76L699.989 1422.07C745.316 1458.92 775.543 1480.1 828.424 1506.21C825.262 1507.42 824.02 1507.86 821.013 1509.62C760.951 1483.04 707.195 1449.78 659.95 1403.63C585.661 1332.29 536.055 1239.12 518.339 1137.66C514.846 1118.07 511.169 1094.11 510.933 1074.11Z"/><path fill="#470C09" d="M699.989 1422.07C691.896 1415.67 692.708 1414.31 701.485 1419.76L699.989 1422.07Z"/><path fill="#F76F4E" d="M1373.79 1128.9C1377.85 1129.85 1428.13 1158.23 1433.91 1161.71C1442.93 1167.15 1519.3 1208.32 1521.39 1211.52C1520.2 1212.73 1519.06 1213.87 1517.83 1215.03C1493.77 1233.96 1467.34 1254.6 1441.28 1270.84C1387.36 1304.43 1326.8 1331.02 1265.62 1348.1C1255.77 1350.85 1224.42 1359.88 1216.29 1360.04C1240.03 1339.96 1255.36 1323.85 1276.26 1301.35L1275.08 1299.19C1277.57 1297.15 1278.11 1296.86 1280.95 1295.32C1290.13 1289.49 1317.66 1253.32 1321.84 1241.87C1342.3 1213.99 1363.99 1162.01 1373.79 1128.9Z"/><path fill="#470C09" d="M1275.08 1299.19C1277.57 1297.15 1278.11 1296.86 1280.95 1295.32C1279.14 1298.02 1278.5 1298.96 1276.26 1301.35L1275.08 1299.19Z"/><path fill="#F76F4E" d="M1450.9 1331.19L1452.12 1333.09C1441.49 1347.04 1431.2 1360.84 1419.47 1373.92C1402.91 1392.09 1386.48 1409.07 1367.92 1424.93C1288.97 1492.39 1190.07 1535 1086.9 1546.53C1079.88 1547.32 1072.42 1548.25 1065.34 1548.07C1041.27 1552.26 1014.91 1547.57 994.123 1549.25L991.951 1546.84C1002.57 1547.2 1020.39 1545.4 1031.1 1544.43C1156.87 1534.68 1327.25 1453.47 1418.08 1366.33C1429.66 1355.23 1440.61 1343.5 1450.9 1331.19Z"/><path fill="#EE4D2B" d="M828.424 1506.21C853.347 1517.37 901.732 1537.56 928.578 1540.98C914.451 1543.76 838.296 1516.74 821.013 1509.62C824.02 1507.86 825.262 1507.42 828.424 1506.21Z"/><path fill="#EE4D2B" d="M1187.09 1382.24C1193.45 1379.31 1202.32 1376.2 1208.98 1373.92C1205.28 1376.59 1194.44 1384.85 1190.94 1386.46C1190.13 1384.75 1189.82 1383.95 1188.2 1382.96L1187.09 1382.24Z"/><path fill="#A64E43" d="M1462.52 1317.17C1460.13 1322.7 1456.02 1328.53 1452.12 1333.09L1450.9 1331.19C1453.63 1327.49 1459.38 1320.21 1462.52 1317.17Z"/><path fill="#824035" d="M977.572 1547.08C982.448 1547.09 987.075 1546.82 991.951 1546.84L994.123 1549.25C987.064 1548.97 984.5 1548.34 977.572 1547.08Z"/><path fill="#492F33" d="M1466.57 1310.94C1465.44 1314.68 1466.09 1316 1462.52 1317.17C1463.01 1314.18 1464.43 1313.1 1466.57 1310.94Z"/><path fill="#EE4D2B" d="M1026.97 705.498L1026.65 703.603C1055.73 685.824 1142.2 671.899 1177.61 668.367C1185.6 673.539 1196.74 677.784 1205.98 683.541C1228.99 700.458 1250.69 719.091 1270.89 739.283L1269.59 741.213C1272.89 744.155 1274.96 745.677 1278.84 747.564C1288.29 755.847 1315.95 789.03 1321.21 800.939C1346.38 842.571 1360.27 871.052 1374.77 917.714C1370.79 920.457 1370.11 921.134 1365.64 922.621C1359.61 927.829 1342.07 936.373 1334.24 940.867C1297.33 962.045 1245.63 961.967 1215.82 928.712C1212.22 924.693 1206.69 914.066 1203.6 908.891C1197.83 899.189 1191.21 890.013 1183.82 881.47C1158.1 852.536 1125.12 830.987 1088.29 819.047C1030.2 800.732 975.514 807.918 922.125 835.811C885.209 858.909 858.183 883.91 837.681 923.21C832.254 900.971 834.552 871.452 841.7 849.686C843.787 843.328 848.893 835.426 849.229 829.528L852.125 826.477C858.627 814.843 877.492 792.773 887.812 784.534C926.496 746.244 975.206 720.983 1026.97 705.498Z"/><path fill="#F76F4E" d="M887.812 784.534C895.698 783.033 903.75 779.882 911.541 777.635C924.979 773.76 938.627 770.66 952.419 768.349C1038.87 753.885 1133.43 775.086 1207.5 821.777C1214.94 826.471 1222.61 831.62 1230.27 835.887C1238.09 840.539 1245.87 846.056 1253.59 850.981C1277.59 866.103 1301.48 881.392 1325.26 896.848C1337.67 904.878 1353.08 915.49 1365.64 922.621C1359.61 927.829 1342.07 936.373 1334.24 940.867C1297.33 962.045 1245.63 961.967 1215.82 928.712C1212.22 924.693 1206.69 914.066 1203.6 908.891C1197.83 899.189 1191.21 890.013 1183.82 881.47C1158.1 852.536 1125.12 830.987 1088.29 819.047C1030.2 800.732 975.514 807.918 922.125 835.811C885.209 858.909 858.183 883.91 837.681 923.21C832.254 900.971 834.552 871.452 841.7 849.686C843.787 843.328 848.893 835.426 849.229 829.528L852.125 826.477C858.627 814.843 877.492 792.773 887.812 784.534Z"/><path fill="#0F1420" d="M1026.97 705.498L1026.65 703.603C1055.73 685.824 1142.2 671.899 1177.61 668.367C1185.6 673.539 1196.74 677.784 1205.98 683.541C1228.99 700.458 1250.69 719.091 1270.89 739.283L1269.59 741.213C1267.03 739.33 1264.39 737.548 1261.68 735.87C1187.52 689.568 1109.48 686.482 1026.97 705.498Z"/><path fill="#0F1420" d="M1321.21 800.939C1346.38 842.571 1360.27 871.052 1374.77 917.714C1370.79 920.457 1370.11 921.134 1365.64 922.621C1353.08 915.49 1337.67 904.878 1325.26 896.848C1301.48 881.392 1277.59 866.103 1253.59 850.981C1257.21 849.767 1257.35 850.39 1257.92 846.765C1283.11 857.122 1308.18 867.787 1333.11 878.757C1333.1 860.833 1331.96 843.141 1328.01 825.565C1326.29 817.887 1321.9 808.359 1321.21 800.939Z"/><path fill="#0F1420" d="M1230.27 835.887C1235.6 836.876 1252.23 844.17 1257.92 846.765C1257.35 850.39 1257.21 849.767 1253.59 850.981C1245.87 846.056 1238.09 840.539 1230.27 835.887Z"/><path fill="#F76F4E" d="M1205.98 683.541C1217.46 683.737 1247.02 691.433 1259.61 694.541C1337.88 714.283 1411.47 749.339 1476.12 797.683C1492.05 809.534 1503.31 820.56 1517.75 831.961C1519.62 833.922 1521.24 835.661 1523.28 837.465L1418.3 894.741C1411.4 898.512 1379.76 916.691 1374.77 917.714C1360.27 871.052 1346.38 842.571 1321.21 800.939C1315.95 789.03 1288.29 755.847 1278.84 747.564C1274.96 745.677 1272.89 744.155 1269.59 741.213L1270.89 739.283C1250.69 719.091 1228.99 700.458 1205.98 683.541Z"/><path fill="#470C09" d="M1270.89 739.283C1274 742.221 1276.02 744.313 1278.84 747.564C1274.96 745.677 1272.89 744.155 1269.59 741.213L1270.89 739.283Z"/><path fill="#F76F4E" d="M1247.52 545.726C1256.1 549.893 1264.65 554.127 1273.16 558.427C1334.93 590.536 1389.09 635.505 1432.02 690.305L1430.63 692.383C1405.15 668.686 1376.26 648.937 1344.93 633.792C1219.9 575.068 1076.82 567.732 946.445 613.363C941.296 612.833 942.366 613.458 938.018 610.352C1032.93 563.61 1166.88 540.165 1270.37 568.446L1273.51 566.715L1269.01 563.774L1244.33 551.513C1244.15 549.496 1244.14 549.184 1244.35 547.171L1247.52 545.726Z"/><path fill="#470C09" d="M1273.51 566.715C1275.08 567.644 1276.81 568.618 1278.34 569.599L1277.85 569.201L1278.59 570.522L1279.19 570.353L1279.23 570.502C1278.21 571.289 1271.82 568.877 1270.37 568.446L1273.51 566.715Z"/><path fill="#F76F4E" d="M531.403 852.649C560.999 767.399 600.101 700.369 665.892 637.184C751.112 555.901 862.064 506.963 979.552 498.838C1000.7 497.237 1019.71 497.529 1040.92 497.966C1038.69 498.559 1037.59 499.046 1035.47 499.91C899.968 502.932 743.78 576.512 651.043 674.48C605.468 722.626 555.945 794.801 536.123 858.556L531.403 852.649Z"/><path fill="#F76F4E" d="M691.309 929.647C692.27 927.531 696.646 899.628 697.904 894.205C705.949 858.984 719.885 825.374 739.124 794.795C779.268 729.656 834.335 685.653 909.568 667.78C901.68 671.69 893.895 675.805 886.221 680.12C796.663 731.088 730.701 815.184 702.534 914.305C695.82 939.169 690.459 972.828 689.83 998.836C686.393 998.188 687.983 983.633 687.788 979.461C687.961 963.434 689.866 945.767 691.309 929.647Z"/><path fill="#EE4D2B" d="M1105.99 504.805C1112.54 503.804 1124.95 507.289 1131.9 508.674C1172.21 516.704 1209.97 528.858 1247.52 545.726L1244.35 547.171C1244.14 549.184 1244.15 549.496 1244.33 551.513C1205.28 533.981 1148.38 511.294 1105.99 504.805Z"/><path fill="#EE4D2B" d="M531.403 852.649L536.123 858.556C524.797 888.889 516.934 920.405 512.682 952.504C511.924 957.829 510.261 968.118 510.647 973.008C508.466 940.711 522.402 883.638 531.403 852.649Z"/><path fill="#EE4D2B" d="M899.137 629.676C909.279 625.861 926.554 614.289 938.018 610.352C942.366 613.458 941.296 612.833 946.445 613.363C932.4 618.144 914.385 624.688 901.086 631.075L899.137 629.676Z"/><path fill="#EE4D2B" d="M509.82 1058.16C509.909 1056.55 509.909 1048.75 510.741 1047.92C511.173 1048.06 511.315 1048.31 511.701 1048.69C511.98 1053.31 513.049 1059.08 512.955 1063.34C510.272 1063.86 511.294 1070.9 510.933 1074.11C509.995 1068.58 510.173 1065.62 509.928 1060.17L509.82 1058.16Z"/><path fill="#492F33" d="M509.82 1058.16L509.558 1056.07C509.228 1053.22 507.168 1033.53 510.914 1034.87C511.089 1039.57 511.508 1044.13 511.701 1048.69C511.315 1048.31 511.173 1048.06 510.741 1047.92C509.909 1048.75 509.909 1056.55 509.82 1058.16Z"/><path fill="#824035" d="M1040.92 497.966C1045.89 497.794 1050.36 498.173 1055.18 498.03L1055.91 500.04C1049.07 499.76 1042.5 500.203 1035.47 499.91C1037.59 499.046 1038.69 498.559 1040.92 497.966Z"/><path fill="#A64E43" d="M1432.02 690.305C1435.09 693.634 1439.55 699.536 1441.4 703.605C1437.87 700.107 1434.06 696.037 1430.63 692.383L1432.02 690.305Z"/><path fill="#824035" d="M901.086 631.075C900.239 631.499 893.037 635.67 892.567 634.216L893.342 634.187L893.262 634.16L893.471 634.107L893.404 633.256C895.295 632.039 897.216 630.847 899.137 629.676L901.086 631.075Z"/><path fill="#492F33" d="M1055.18 498.03C1059.91 498.083 1060.08 498.049 1064.71 499.446L1066.35 499.931C1062.84 499.964 1059.42 500.115 1055.91 500.04L1055.18 498.03Z"/></svg>